<svg version="1.1" xmlns="http://www.w3.org/2000/svg" xmlns:xlink="http://www.w3.org/1999/xlink" width="179" height="179" viewBox="0,0,179,179"><defs><linearGradient x1="151.5" y1="180" x2="328.5" y2="180" gradientUnits="userSpaceOnUse" id="color-1"><stop offset="0" stop-color="#3e5fcf"/><stop offset="1" stop-color="#3e9dcf"/></linearGradient><linearGradient x1="240.37176" y1="201.08811" x2="240.37176" y2="213.00252" gradientUnits="userSpaceOnUse" id="color-2"><stop offset="0" stop-color="#e3ba00"/><stop offset="1" stop-color="#ba9800"/></linearGradient><linearGradient x1="273.26597" y1="168.35389" x2="284.59055" y2="168.35389" gradientUnits="userSpaceOnUse" id="color-3"><stop offset="0" stop-color="#ffd000"/><stop offset="1" stop-color="#b49300"/></linearGradient></defs><g transform="translate(-150.5,-90.5)"><g data-paper-data="{&quot;isPaintingLayer&quot;:true}" fill-rule="nonzero" stroke-linejoin="miter" stroke-miterlimit="10" stroke-dasharray="" stroke-dashoffset="0" style="mix-blend-mode: normal"><path d="M151.5,180c0,-48.8772 39.6228,-88.5 88.5,-88.5c48.8772,0 88.5,39.6228 88.5,88.5c0,48.8772 -39.6228,88.5 -88.5,88.5c-48.8772,0 -88.5,-39.6228 -88.5,-88.5z" fill="url(#color-1)" stroke="#eaeefc" stroke-width="2" stroke-linecap="butt"/><path d="M210.34497,201.84288l-38.93597,-31.10553l9.99604,-11.89647l42.43597,23.35553z" fill="#fffa7b" stroke="none" stroke-width="0" stroke-linecap="butt"/><path d="M180,184.66666l-19,-27h32l-13,8z" fill="#ffe746" stroke="#bf9c00" stroke-width="4" stroke-linecap="round"/><path d="M307.00745,164.67226l5.14492,10.04631l10.18871,-7.26319l-3.65123,-7.12964l-6.83699,0.22881z" fill="#ffe746" stroke="#bf9c00" stroke-width="2" stroke-linecap="round"/><path d="M306.03523,165.17015l5.14492,10.04631l-11.66668,5.97474l-5.14492,-10.04631z" fill="#ffe746" stroke="#bf9c00" stroke-width="2" stroke-linecap="round"/><path d="M299.50561,180.37709l-6.27625,7.71395c0,0 -2.35023,-4.58922 -3.65123,-7.12964c-1.4937,-2.91671 -4.81299,-9.39816 -4.81299,-9.39816l10.42537,0.38792z" fill="#ffe746" stroke="#bf9c00" stroke-width="2" stroke-linecap="round"/><path d="M286.92269,175.77621l-6.48149,3.3193l4.48106,8.75001l6.48149,-3.3193z" fill="#ffe746" stroke="#bf9c00" stroke-width="2" stroke-linecap="round"/><path d="M286.49649,165.35869l4.64702,9.07409l23.65744,-12.11545l-2.15755,-4.21297l-20.75648,8.99354l-3.15334,-6.15742l-3.56482,1.82562z" fill="#ffe746" stroke="#bf9c00" stroke-width="2" stroke-linecap="round"/><path d="M195.40945,200.99072v-77.85652h77.85652v77.85652z" fill="#ffe746" stroke="#bf9c00" stroke-width="2" stroke-linecap="butt"/><path d="M273.93263,201.0881l9.83217,11.58108l-74.07626,-0.07309l-14.04316,-10.80019" fill="url(#color-2)" stroke="#bf9c00" stroke-width="2" stroke-linecap="round"/><path d="M273.5019,123.05556l10.85273,9.90901v79.74395" fill="none" stroke="#bf9c00" stroke-width="2" stroke-linecap="round"/><path d="M273.93263,199.94624l-0.41501,-76.1829l10.82127,9.08548l-0.08168,78.42896z" fill="url(#color-3)" stroke="#bf9c00" stroke-width="0.5" stroke-linecap="butt"/><path d="M202.31037,153.80495v-21.43266h20.17192v21.43266z" fill="#00d3e9" stroke="#00b7cb" stroke-width="2" stroke-linecap="butt"/><path d="M242.30031,153.80495v-21.58749h20.31764v21.58749z" fill="#00d3e9" stroke="#00b7cb" stroke-width="2" stroke-linecap="butt"/><path d="M201.95648,187.42481v-13.44795h62.993v13.44795z" fill="#00d3e9" stroke="#00b7cb" stroke-width="2" stroke-linecap="butt"/><text transform="translate(201.21781,239.26875) scale(0.63001,0.63001)" font-size="40" xml:space="preserve" fill="#efefef" fill-rule="nonzero" stroke="none" stroke-width="1" stroke-linecap="butt" stroke-linejoin="miter" stroke-miterlimit="10" stroke-dasharray="" stroke-dashoffset="0" font-family="Sans Serif" font-weight="normal" text-anchor="start" style="mix-blend-mode: normal"><tspan x="0" dy="0">𝗧𝗚𝗗𝗣𝗦</tspan></text><path d="M168.25,207.75214c0,-0.41421 0.33579,-0.75 0.75,-0.75c0.41421,0 0.75,0.33579 0.75,0.75c0,0.41421 -0.33579,0.75 -0.75,0.75c-0.41421,0 -0.75,-0.33579 -0.75,-0.75z" fill="#f7f7f7" stroke="none" stroke-width="0.5" stroke-linecap="butt"/><path d="M179.25,218.75214c0,-0.41421 0.33579,-0.75 0.75,-0.75c0.41421,0 0.75,0.33579 0.75,0.75c0,0.41421 -0.33579,0.75 -0.75,0.75c-0.41421,0 -0.75,-0.33579 -0.75,-0.75z" fill="#f7f7f7" stroke="none" stroke-width="0.5" stroke-linecap="butt"/><path d="M186.25,131.75214c0,-0.41421 0.33579,-0.75 0.75,-0.75c0.41421,0 0.75,0.33579 0.75,0.75c0,0.41421 -0.33579,0.75 -0.75,0.75c-0.41421,0 -0.75,-0.33579 -0.75,-0.75z" fill="#f7f7f7" stroke="none" stroke-width="0.5" stroke-linecap="butt"/><path d="M294.25,143.75214c0,-0.41421 0.33579,-0.75 0.75,-0.75c0.41421,0 0.75,0.33579 0.75,0.75c0,0.41421 -0.33579,0.75 -0.75,0.75c-0.41421,0 -0.75,-0.33579 -0.75,-0.75z" fill="#f7f7f7" stroke="none" stroke-width="0.5" stroke-linecap="butt"/><path d="M251.25,105.75214c0,-0.41421 0.33579,-0.75 0.75,-0.75c0.41421,0 0.75,0.33579 0.75,0.75c0,0.41421 -0.33579,0.75 -0.75,0.75c-0.41421,0 -0.75,-0.33579 -0.75,-0.75z" fill="#f7f7f7" stroke="none" stroke-width="0.5" stroke-linecap="butt"/><path d="M224.25,111.75214c0,-0.41421 0.33579,-0.75 0.75,-0.75c0.41421,0 0.75,0.33579 0.75,0.75c0,0.41421 -0.33579,0.75 -0.75,0.75c-0.41421,0 -0.75,-0.33579 -0.75,-0.75z" fill="#f7f7f7" stroke="none" stroke-width="0.5" stroke-linecap="butt"/><path d="M172.25,141.75214c0,-0.41421 0.33579,-0.75 0.75,-0.75c0.41421,0 0.75,0.33579 0.75,0.75c0,0.41421 -0.33579,0.75 -0.75,0.75c-0.41421,0 -0.75,-0.33579 -0.75,-0.75z" fill="#f7f7f7" stroke="none" stroke-width="0.5" stroke-linecap="butt"/><path d="M164.25,189.75214c0,-0.41421 0.33579,-0.75 0.75,-0.75c0.41421,0 0.75,0.33579 0.75,0.75c0,0.41421 -0.33579,0.75 -0.75,0.75c-0.41421,0 -0.75,-0.33579 -0.75,-0.75z" fill="#f7f7f7" stroke="none" stroke-width="0.5" stroke-linecap="butt"/><path d="M189.25,207.75214c0,-0.41421 0.33579,-0.75 0.75,-0.75c0.41421,0 0.75,0.33579 0.75,0.75c0,0.41421 -0.33579,0.75 -0.75,0.75c-0.41421,0 -0.75,-0.33579 -0.75,-0.75z" fill="#f7f7f7" stroke="none" stroke-width="0.5" stroke-linecap="butt"/><path d="M298.25,219.75214c0,-0.41421 0.33579,-0.75 0.75,-0.75c0.41421,0 0.75,0.33579 0.75,0.75c0,0.41421 -0.33579,0.75 -0.75,0.75c-0.41421,0 -0.75,-0.33579 -0.75,-0.75z" fill="#f7f7f7" stroke="none" stroke-width="0.5" stroke-linecap="butt"/><path d="M306.25,200.75214c0,-0.41421 0.33579,-0.75 0.75,-0.75c0.41421,0 0.75,0.33579 0.75,0.75c0,0.41421 -0.33579,0.75 -0.75,0.75c-0.41421,0 -0.75,-0.33579 -0.75,-0.75z" fill="#f7f7f7" stroke="none" stroke-width="0.5" stroke-linecap="butt"/><path d="M308.25,146.75214c0,-0.41421 0.33579,-0.75 0.75,-0.75c0.41421,0 0.75,0.33579 0.75,0.75c0,0.41421 -0.33579,0.75 -0.75,0.75c-0.41421,0 -0.75,-0.33579 -0.75,-0.75z" fill="#f7f7f7" stroke="none" stroke-width="0.5" stroke-linecap="butt"/><path d="M288.25,119.75214c0,-0.41421 0.33579,-0.75 0.75,-0.75c0.41421,0 0.75,0.33579 0.75,0.75c0,0.41421 -0.33579,0.75 -0.75,0.75c-0.41421,0 -0.75,-0.33579 -0.75,-0.75z" fill="#f7f7f7" stroke="none" stroke-width="0.5" stroke-linecap="butt"/><path d="M248.25,253.75214c0,-0.41421 0.33579,-0.75 0.75,-0.75c0.41421,0 0.75,0.33579 0.75,0.75c0,0.41421 -0.33579,0.75 -0.75,0.75c-0.41421,0 -0.75,-0.33579 -0.75,-0.75z" fill="#f7f7f7" stroke="none" stroke-width="0.5" stroke-linecap="butt"/><path d="M204.25,247.75214c0,-0.41421 0.33579,-0.75 0.75,-0.75c0.41421,0 0.75,0.33579 0.75,0.75c0,0.41421 -0.33579,0.75 -0.75,0.75c-0.41421,0 -0.75,-0.33579 -0.75,-0.75z" fill="#f7f7f7" stroke="none" stroke-width="0.5" stroke-linecap="butt"/><path d="M184.25,237.75214c0,-0.41421 0.33579,-0.75 0.75,-0.75c0.41421,0 0.75,0.33579 0.75,0.75c0,0.41421 -0.33579,0.75 -0.75,0.75c-0.41421,0 -0.75,-0.33579 -0.75,-0.75z" fill="#f7f7f7" stroke="none" stroke-width="0.5" stroke-linecap="butt"/><path d="M220.25,251.75214c0,-0.41421 0.33579,-0.75 0.75,-0.75c0.41421,0 0.75,0.33579 0.75,0.75c0,0.41421 -0.33579,0.75 -0.75,0.75c-0.41421,0 -0.75,-0.33579 -0.75,-0.75z" fill="#f7f7f7" stroke="none" stroke-width="0.5" stroke-linecap="butt"/><path d="M274.25,242.75214c0,-0.41421 0.33579,-0.75 0.75,-0.75c0.41421,0 0.75,0.33579 0.75,0.75c0,0.41421 -0.33579,0.75 -0.75,0.75c-0.41421,0 -0.75,-0.33579 -0.75,-0.75z" fill="#f7f7f7" stroke="none" stroke-width="0.5" stroke-linecap="butt"/><path d="M282.25,223.75214c0,-0.41421 0.33579,-0.75 0.75,-0.75c0.41421,0 0.75,0.33579 0.75,0.75c0,0.41421 -0.33579,0.75 -0.75,0.75c-0.41421,0 -0.75,-0.33579 -0.75,-0.75z" fill="#f7f7f7" stroke="none" stroke-width="0.5" stroke-linecap="butt"/></g></g></svg>